<?xml version="1.0" encoding="UTF-8"?> <svg xmlns="http://www.w3.org/2000/svg" width="184" height="129" viewBox="0 0 184 129" fill="none"> <path d="M175.551 97.9779C181.031 88.2939 183.772 77.0661 183.772 64.2946C183.772 51.5232 181.031 40.2954 175.551 30.6114C170.163 21.0106 162.094 13.1906 152.333 8.10894C142.296 2.79811 130.705 0.142698 117.563 0.142697L66.661 0.142695C53.4848 0.142695 41.8945 2.7981 31.8902 8.10894C22.1292 13.1906 14.0608 21.0106 8.67279 30.6114C3.1654 40.3021 0.411691 51.5299 0.411691 64.2946C0.41169 77.0594 3.152 88.2872 8.63263 97.9779C14.0297 107.592 22.1172 115.417 31.9002 120.49C41.938 125.801 53.5282 128.46 66.671 128.467L117.563 128.467C130.732 128.467 142.322 125.808 152.333 120.49C162.098 115.409 170.167 107.585 175.551 97.9779V97.9779ZM65.8078 98.7816C59.1162 98.926 52.4873 97.4656 46.475 94.5222C41.0903 91.8429 36.6195 87.6271 33.6267 82.4071C30.6676 76.8309 29.1203 70.6134 29.1203 64.2996C29.1203 57.9859 30.6676 51.7684 33.6267 46.1922C36.6168 40.9751 41.089 36.7652 46.475 34.0972C52.4848 31.1455 59.1149 29.6813 65.8078 29.8278L118.426 29.8278C125.119 29.6813 131.749 31.1455 137.759 34.0972C143.139 36.7544 147.611 40.9498 150.607 46.1521C153.566 51.7283 155.113 57.9457 155.113 64.2595C155.113 70.5733 153.566 76.7906 150.607 82.3668C147.614 87.5869 143.143 91.8026 137.759 94.482C131.746 97.4254 125.117 98.8858 118.426 98.7413L65.8078 98.7816Z" fill="#FEC901"></path> </svg> 