<?xml version="1.0" encoding="UTF-8"?> <svg xmlns="http://www.w3.org/2000/svg" width="184" height="129" viewBox="0 0 184 129" fill="none"> <path d="M175.139 98.2078C180.62 88.5237 183.36 77.2959 183.36 64.5245C183.36 51.753 180.62 40.5253 175.139 30.8412C169.751 21.2405 161.682 13.4205 151.922 8.3388C141.884 3.02797 130.294 0.372556 117.151 0.372556L66.2491 0.372553C53.0729 0.372553 41.4826 3.02796 31.4783 8.3388C21.7174 13.4205 13.6489 21.2405 8.26093 30.8412C2.75353 40.532 -0.000173777 51.7597 -0.000174335 64.5245C-0.000174893 77.2892 2.74014 88.517 8.22076 98.2078C13.6178 107.822 21.7054 115.647 31.4883 120.72C41.5261 126.031 53.1164 128.69 66.2592 128.696L117.151 128.697C130.32 128.697 141.911 126.038 151.922 120.72C161.686 115.639 169.755 107.814 175.139 98.2078V98.2078ZM65.3959 99.0114C58.7044 99.1559 52.0755 97.6954 46.0632 94.7521C40.6785 92.0727 36.2076 87.857 33.2148 82.6369C30.2558 77.0607 28.7085 70.8433 28.7085 64.5295C28.7085 58.2157 30.2558 51.9983 33.2148 46.4221C36.205 41.2049 40.6771 36.995 46.0632 34.3271C52.0729 31.3754 58.7031 29.9112 65.3959 30.0576L118.014 30.0576C124.707 29.9112 131.337 31.3754 137.347 34.3271C142.727 36.9843 147.199 41.1797 150.195 46.3819C153.154 51.9581 154.701 58.1756 154.701 64.4893C154.701 70.8031 153.154 77.0205 150.195 82.5967C147.202 87.8167 142.731 92.0325 137.347 94.7118C131.334 97.6552 124.705 99.1157 118.014 98.9712L65.3959 99.0114Z" fill="white"></path> </svg> 