<?xml version="1.0" encoding="UTF-8"?> <svg xmlns="http://www.w3.org/2000/svg" width="140" height="50" viewBox="0 0 140 50" fill="none"> <path d="M47.9341 42.0821C47.7063 42.1255 47.4785 42.1255 47.2507 42.1255C46.6053 42.1255 46.5674 41.6916 46.5674 41.0842C46.5674 39.9561 46.6053 38.828 46.6053 37.7C46.6053 31.4088 46.4915 25.1177 46.4155 18.8265C46.3776 17.091 46.2637 15.3989 46.2637 13.6634C46.2637 12.7523 46.4535 11.8412 46.4535 10.8867C46.4535 9.84537 46.1877 9.88876 45.4285 9.67182C45.1248 9.54166 44.821 9.45488 44.4794 9.45488C43.6062 9.45488 43.5682 10.6697 43.5682 11.4073C43.5682 18.3493 43.796 25.2912 43.796 32.1898C43.796 35.4004 43.4543 38.6111 43.4543 41.7784C43.4543 42.8196 43.4543 45.3795 44.7831 45.3795C45.2007 45.3795 45.6183 45.3361 46.0359 45.3361C47.972 45.3361 49.8702 45.5097 51.8064 45.5097C52.4518 45.5097 52.4518 44.3382 52.4518 43.8176C52.4518 43.2101 52.4138 42.6027 52.3758 41.9953C52.0721 41.5614 51.5786 41.4746 51.161 41.4746C50.0601 41.4746 48.9971 41.9085 47.9341 42.0821Z" fill="#FE570B"></path> <path d="M60.1881 8.02311C59.201 7.93633 58.2519 7.67601 57.2649 7.67601C55.8982 7.67601 55.7463 8.76069 55.7463 10.0189C55.7463 10.93 55.8982 11.8412 55.8982 12.7957C55.9741 16.0931 55.9741 19.4339 55.9741 22.7314C55.9741 29.7601 55.9361 36.7454 55.9361 43.7742C55.9361 44.5985 55.7084 45.4229 55.7084 46.2472C55.7084 47.2451 55.9361 47.2885 56.7334 47.2885C58.176 47.2885 59.6566 47.0282 61.0992 46.7679C61.5928 46.6811 62.1622 46.6811 62.1622 45.9001C62.1622 45.1626 62.1242 44.425 62.1242 43.6874C62.1242 43.2101 62.0483 42.9932 61.6307 42.9932C60.8335 42.9932 60.1501 43.5138 59.3909 43.5138C58.8973 43.5138 58.7834 42.9932 58.7834 42.5159C58.7834 41.735 58.9732 40.9106 58.9732 40.0863C58.9732 38.9148 58.9353 37.7 58.8973 36.5285C58.8594 35.1401 58.5177 33.7951 58.5177 32.4067C58.5177 31.5824 58.5936 30.4543 59.5427 30.4543C60.1501 30.4543 60.6816 30.8882 61.289 30.8882C61.6687 30.8882 62.0104 30.5411 62.0104 30.1072C62.0104 29.6299 61.8585 29.1961 61.8205 28.7188C61.7066 27.4606 61.9724 27.2436 60.6057 27.2436C60.1122 27.2436 59.6566 27.504 59.1631 27.504C58.7075 27.504 58.6695 26.6796 58.6695 26.2891C58.4418 23.6425 58.5556 20.9959 58.5556 18.3493C58.5556 16.4836 58.2519 14.618 58.2519 12.7089C58.2519 12.1449 58.3658 11.8412 58.9353 11.8412C59.9223 11.8412 60.7955 12.6221 61.7826 12.6221C62.7696 12.6221 62.7696 10.3226 62.7696 9.54166C62.7696 7.80617 61.8965 8.06649 60.7575 8.06649L60.1881 8.02311Z" fill="#FE570B"></path> <path d="M77.5832 9.49827C76.2545 9.67182 76.4443 10.5396 76.4443 11.711C76.4443 15.5725 75.6091 21.343 75.2295 25.3346C75.0017 27.7643 74.736 30.194 74.4702 32.6237C74.3563 33.7083 74.3183 34.793 74.1665 35.8777C74.1665 35.9645 74.0906 36.6587 74.0146 36.6587C73.9387 36.6587 73.9387 36.5719 73.9007 36.4851C73.673 35.8777 73.7869 34.6629 73.673 33.9687C73.5211 32.4067 73.1794 30.8448 72.9137 29.2828C72.4581 26.5928 72.1544 23.8161 71.6988 21.126C71.3192 18.7397 70.7877 16.3968 70.446 14.0105C70.2562 12.8825 70.2942 11.711 69.9525 10.6697C69.6108 9.62843 69.7247 9.93214 68.8136 9.71521C68.434 9.58505 68.0164 9.45488 67.5988 9.45488C67.1432 9.45488 66.9913 9.75859 66.9913 10.2359C66.9913 12.1883 67.9404 15.4857 68.2821 17.5683C69.1173 22.7748 69.5729 28.068 70.7877 33.1877C71.2053 35.0533 71.509 36.9624 71.8127 38.828C72.0405 40.4334 71.6988 45.5097 73.635 45.5097C75.4952 45.5097 75.6471 45.5964 75.9128 43.5572C76.8619 35.574 77.6212 27.5907 78.3805 19.5641C78.5323 17.6551 78.7222 15.746 78.9879 13.8804C79.1398 12.6655 79.7851 11.2771 79.7851 10.0623C79.7851 9.49827 78.6462 9.45488 78.3046 9.45488C78.0768 9.45488 77.811 9.45488 77.5832 9.49827Z" fill="#FE570B"></path> <path d="M88.6577 42.0821C88.4299 42.1255 88.2021 42.1255 87.9744 42.1255C87.329 42.1255 87.291 41.6916 87.291 41.0842C87.291 39.9561 87.329 38.828 87.329 37.7C87.329 31.4088 87.2151 25.1177 87.1392 18.8265C87.1012 17.091 86.9873 15.3989 86.9873 13.6634C86.9873 12.7523 87.1771 11.8412 87.1771 10.8867C87.1771 9.84537 86.9114 9.88876 86.1521 9.67182C85.8484 9.54166 85.5447 9.45488 85.203 9.45488C84.3298 9.45488 84.2919 10.6697 84.2919 11.4073C84.2919 18.3493 84.5196 25.2912 84.5196 32.1898C84.5196 35.4004 84.178 38.6111 84.178 41.7784C84.178 42.8196 84.178 45.3795 85.5067 45.3795C85.9243 45.3795 86.3419 45.3361 86.7595 45.3361C88.6957 45.3361 90.5939 45.5097 92.53 45.5097C93.1754 45.5097 93.1754 44.3382 93.1754 43.8176C93.1754 43.2101 93.1374 42.6027 93.0995 41.9953C92.7958 41.5614 92.3022 41.4746 91.8846 41.4746C90.7837 41.4746 89.7207 41.9085 88.6577 42.0821Z" fill="#FE570B"></path> <path d="M103.683 13.0994C103.569 11.9713 103.683 10.8867 103.683 9.75859C103.683 8.32682 102.962 8.32682 101.937 8.32682C101.405 8.32682 100.798 8.32682 100.342 8.67391C99.8108 9.0644 99.8487 12.4486 99.7728 13.273C99.0895 21.126 97.9885 28.8924 97.2292 36.7021C97.0394 39.0016 96.7357 41.2577 96.4699 43.5572C96.2801 45.6832 96.1283 46.334 97.7228 46.4642C97.9505 46.5076 98.2163 46.5943 98.482 46.5943C99.2793 46.5943 99.2033 45.4663 99.2033 44.8155C99.2033 42.9932 99.4311 41.2143 99.4691 39.4354C99.5071 38.5243 99.5071 37.483 100.342 37.0058C100.532 36.919 102.127 37.0058 102.354 37.0058C103.379 36.9624 103.417 39.4354 103.645 41.1275C103.835 42.6895 103.493 46.5076 104.328 46.5076C105.126 46.5076 105.809 46.4208 106.416 45.9435C106.796 45.6398 106.454 41.7784 106.265 40.0863C105.353 31.1051 104.974 22.0372 103.683 13.0994ZM102.696 33.8819C102.468 34.0554 102.165 34.1422 101.899 34.1422C101.064 34.1422 100.304 34.2724 100.342 33.5782C100.38 31.9728 101.253 22.9917 101.481 21.343C101.899 25.7685 102.734 29.1093 102.734 33.0575C102.734 33.3178 102.734 33.6216 102.696 33.8819ZM101.519 21.1694C101.519 21.0827 101.519 21.0827 101.519 21.0393C101.519 21.0827 101.519 21.126 101.519 21.1694Z" fill="#FE570B"></path> <path d="M123.583 23.1219C123.507 19.8244 123.355 16.527 123.355 13.2296C123.355 12.1449 123.469 11.1036 123.469 10.0623C123.469 7.80617 122.9 8.10988 121.267 7.93633C121.002 7.89295 120.736 7.84956 120.47 7.84956C120.129 7.84956 119.901 8.24004 119.901 8.63053C119.901 17.7852 120.812 27.5907 121.002 36.8756C120.546 36.138 120.28 34.1856 120.053 33.2311C118.154 25.0743 115.801 17.091 113.978 8.89085C113.637 7.15536 112.156 7.76278 111.093 7.58923C110.941 7.89295 110.941 8.19665 110.941 8.50037C110.941 10.6263 111.207 12.7523 111.283 14.8783C111.587 25.0743 112.042 35.2703 112.042 45.4663C112.042 46.898 113.029 46.8113 113.94 46.8113C115.003 46.8113 115.345 46.5509 115.345 45.2493C115.345 44.0779 115.155 42.863 115.079 41.6916C114.776 36.3983 114.965 31.1051 114.434 25.8119C114.32 24.5102 114.092 23.5991 114.092 21.2996C114.814 22.7314 115.687 26.8098 116.142 28.5019C117.471 33.5348 118.914 38.6111 119.939 43.7308C120.129 44.5118 120.318 47.3319 121.305 47.3319C121.723 47.3319 123.583 47.115 123.849 46.8547C124.001 46.6811 124.001 46.3774 124.001 46.1605C124.001 45.0758 123.811 44.0345 123.811 42.9498C123.811 41.3879 123.849 39.8693 123.849 38.3074C123.849 33.2311 123.659 28.1982 123.583 23.1219Z" fill="#FE570B"></path> <path d="M137.912 15.746C136.431 11.9713 133.128 9.19456 129.484 9.19456C128.952 9.19456 128.535 9.32472 128.535 10.0623C128.535 10.5396 128.611 11.0168 128.649 11.5375C128.801 13.3163 128.801 15.0518 128.839 16.8307C129.028 24.2933 129.484 31.7559 129.75 39.2185C129.826 40.954 129.94 42.6461 129.94 44.3816C129.94 45.3361 130.129 45.7266 131.04 45.7266C137.95 45.7266 140 37.8301 140 31.5824C140 26.2457 139.81 20.6922 137.912 15.746ZM133.28 41.735C132.711 41.735 132.711 40.9106 132.711 40.4767C132.711 37.9603 132.521 35.574 132.369 33.0575C132.103 28.7622 131.914 24.4669 131.61 20.1715C131.572 19.6075 131.078 12.7957 131.268 12.7957C134.457 12.7957 136.887 21.7335 136.887 28.1982C136.887 30.5845 136.925 41.735 133.28 41.735Z" fill="#FE570B"></path> <path d="M36.6946 41.806C35.3923 40.9973 34.1297 40.4576 32.9988 40.2351C30.821 37.9487 25.9093 37.6236 22.9585 34.1594C21.6213 32.5845 21.2097 30.9483 20.6268 28.939L12.6267 30.1262C13.36 34.9402 12.9392 40.4323 13.2493 45.2743C13.3169 46.3242 13.5023 48.4227 13.5559 48.8131C13.8019 49.033 15.5635 49.033 15.8946 48.8131C15.8946 47.5673 15.8946 44.8332 17.3239 44.8332C18.7941 44.8332 18.864 47.3861 18.864 48.8131C19.1566 49.057 20.987 49.1063 21.2552 48.8131C21.2552 47.0304 21.8754 44.8332 23.911 44.8332C25.9466 44.8332 26.7627 46.8398 26.7627 48.8131C27.0938 49.033 28.8787 49.033 29.1352 48.8131C29.1352 47.4061 29.2238 44.8159 30.4992 44.8159C31.7747 44.8159 31.8808 47.2316 31.8808 48.8131C32.2515 48.985 33.8627 48.985 34.1215 48.8131C34.2894 47.9098 34.9295 43.8566 33.7123 41.2691C33.5769 40.9839 33.4091 40.7205 33.2133 40.4856C34.2626 40.7308 35.4284 41.2451 36.6281 41.9912C37.3439 43.9658 39.0158 44.3123 40.9091 44.1231C39.9776 42.9106 38.5797 41.2398 36.6946 41.806ZM39.8808 42.2617C39.5929 41.5129 38.7418 40.8614 37.5398 41.5262C38.4865 41.4529 39.3667 41.9339 39.8808 42.2617Z" fill="#FEC901"></path> <path d="M33.7157 41.2664C33.3799 40.5522 32.8401 39.9979 32.1675 39.5342C27.2406 42.684 20.7328 43.3676 13.1641 43.4382C13.1839 44.0591 13.2107 44.6733 13.2492 45.2769C13.3168 46.3268 13.5022 48.4254 13.5558 48.8157C13.8018 49.0356 15.5634 49.0356 15.8945 48.8157C15.8945 47.57 15.8945 44.8359 17.3238 44.8359C18.794 44.8359 18.8639 47.3887 18.8639 48.8157C19.1565 49.0596 20.9869 49.1089 21.2551 48.8157C21.2551 47.033 21.8753 44.8359 23.9109 44.8359C25.9465 44.8359 26.7626 46.8425 26.7626 48.8157C27.0937 49.0356 28.8786 49.0356 29.1351 48.8157C29.1351 47.4087 29.2237 44.8185 30.4991 44.8185C31.7746 44.8185 31.8807 47.2342 31.8807 48.8157C32.2514 48.9876 33.8626 48.9876 34.1214 48.8157C34.2928 47.9071 34.9329 43.8539 33.7157 41.2664Z" fill="#00BD4E"></path> <path d="M13.7234 45.5447L15.4022 45.9444L14.8706 44.2856L13.7234 45.5447ZM19.4011 47.8737L20.9855 46.8944L19.569 46.0723L19.4011 47.8737ZM25.1522 44.5521L25.3621 42.8453L23.8465 43.4329L25.1522 44.5521ZM31.7498 42.5068L32.0133 44.4282L33.3097 43.229L31.7498 42.5068ZM28.0517 47.4834L28.8037 45.7019L27.2461 45.8019L28.0517 47.4834Z" fill="#008F28"></path> <path d="M11.3908 7.40209C7.16113 2.7147 12.5019 1.15179 17.2271 6.95174C14.9793 -0.75354 19.7652 -1.87542 22.6285 8.8171C29.1223 1.73672 34.8047 5.88582 28.0415 11.3633C35.8306 8.03231 35.7875 13.2114 32.8215 14.5131C39.1451 17.7109 39.3165 23.6934 34.1891 22.3916C36.4112 23.9545 37.1259 25.9278 36.5406 26.6739C35.9554 27.4201 34.3313 26.6393 33.4266 25.7239C34.6216 27.2189 35.5053 29.9876 34.8874 32.0595C34.2462 34.2087 31.8959 33.6717 30.6531 32.1488C31.4552 37.9527 26.2706 40.1658 23.1799 35.136C23.1368 39.385 18.0094 40.1658 16.9869 35.8515C14.1679 40.363 8.74436 38.0233 8.61495 33.2747C2.88828 35.8209 1.51608 29.5226 5.08358 28.2475C0.709307 29.0336 -0.316643 24.1997 3.52484 22.2757C-0.743345 22.5888 -2.41051 17.559 5.97313 14.3865C-1.93951 13.1634 2.79851 5.59535 11.3908 7.40209Z" fill="#55453F"></path> <path d="M11.946 13.7989C8.27819 11.1621 13.268 6.31212 15.3899 9.69908C15.8644 10.4586 15.8271 11.5032 15.7956 12.3825C16.5219 12.236 17.2483 12.236 17.9746 12.236C14.7277 13.1687 15.7525 16.9234 20.0253 13.3099C17.8463 17.7068 21.9909 18.437 22.2474 13.8961C23.3153 18.2424 26.2638 17.3604 25.0338 13.8162C25.5375 14.1893 26.6474 15.0687 27.4599 16.1426C29.2542 13.6523 31.9263 14.7849 32.4953 16.8621C33.3557 19.9999 30.4084 20.9765 29.0583 20.4436C29.9374 28.4473 25.6774 35.7848 15.5986 31.8196C4.16973 27.3241 8.18609 17.3631 11.946 13.7989Z" fill="#FEC901"></path> <path d="M12.8599 10.4426C14.5854 9.3474 14.7661 12.7703 13.7833 13.0635C12.8005 13.3566 11.3875 11.3753 12.8599 10.4426Z" fill="#62534A"></path> <path d="M31.0448 17.2165C31.8143 19.0726 29.1795 19.5589 28.6956 18.4863C28.2118 17.4137 30.2765 15.3618 31.0448 17.2165Z" fill="#62534A"></path> <path d="M12.5438 19.2978C12.1474 19.431 11.9294 20.0413 12.2162 20.4077C12.6522 20.9646 13.4706 20.2944 13.1675 19.6189C13.1171 19.4863 13.0253 19.3799 12.91 19.3205C12.7946 19.2611 12.6641 19.253 12.5438 19.2978Z" fill="black"></path> <path d="M24.9635 24.3715C24.8526 24.3072 24.7248 24.292 24.6047 24.3289C24.4846 24.3658 24.3807 24.4522 24.313 24.5714C24.2349 24.6773 24.1876 24.8083 24.1777 24.9463C24.1678 25.0843 24.1958 25.2223 24.2577 25.3413C24.3196 25.4603 24.4125 25.5543 24.5233 25.6102C24.6341 25.6661 24.7574 25.6812 24.8761 25.6533C25.4917 25.5454 25.4614 24.638 24.9635 24.3715Z" fill="black"></path> <path d="M20.1988 28.3821C20.183 28.3651 20.1622 28.3557 20.1405 28.3557C20.1189 28.3557 20.098 28.3651 20.0822 28.3821C19.4678 29.0109 18.6447 29.1175 17.9837 28.6485C17.4952 28.3061 17.0627 27.5733 17.2574 26.53C17.269 26.5127 17.2819 26.498 17.2923 26.4807C17.304 26.4629 17.3098 26.441 17.3087 26.4189C17.3076 26.3967 17.2998 26.3757 17.2865 26.3595C17.2857 26.3392 17.2792 26.3198 17.2681 26.304C17.257 26.2882 17.2418 26.2769 17.2247 26.2715C17.2028 26.265 17.1795 26.2686 17.1598 26.2816C17.1402 26.2945 17.1258 26.3158 17.1198 26.3408C17.1116 26.3755 17.1058 26.4101 17.0988 26.4447C16.6127 27.1363 15.94 27.4227 15.2847 27.2109C14.7018 27.0217 14.2809 26.486 14.2355 25.8785C14.2331 25.8527 14.2221 25.8289 14.2047 25.8123C14.1873 25.7956 14.1649 25.7873 14.1422 25.7892C14.1197 25.7919 14.0991 25.8046 14.0847 25.8245C14.0703 25.8445 14.0633 25.87 14.0653 25.8958C14.1189 26.5846 14.5911 27.1896 15.2404 27.4001C15.396 27.4501 15.5568 27.4757 15.7184 27.476C15.9682 27.4701 16.2144 27.4074 16.4428 27.2916C16.6712 27.1759 16.8771 27.0094 17.0487 26.8018C17.0186 27.0944 17.043 27.3909 17.1203 27.6719C17.1977 27.9528 17.3262 28.2119 17.4975 28.432C17.6687 28.6522 17.8788 28.8284 18.1139 28.9491C18.349 29.0697 18.6038 29.1321 18.8616 29.1322C19.3571 29.1246 19.8326 28.9077 20.1965 28.5233C20.2049 28.5143 20.2116 28.5034 20.2163 28.4914C20.221 28.4794 20.2235 28.4664 20.2237 28.4532C20.2239 28.4401 20.2218 28.427 20.2176 28.4148C20.2133 28.4025 20.2069 28.3914 20.1988 28.3821V28.3821Z" fill="black"></path> <path d="M23.2301 26.8884C22.6471 26.5393 21.9616 26.2835 21.0593 26.0889C21.0504 26.087 21.0413 26.0871 21.0324 26.0892C21.0236 26.0913 21.0152 26.0954 21.0077 26.1012C21.0002 26.107 20.9938 26.1145 20.9889 26.1231C20.9839 26.1318 20.9805 26.1414 20.9788 26.1516C20.9771 26.1617 20.9772 26.1721 20.9791 26.1823C20.9809 26.1924 20.9845 26.202 20.9895 26.2105C20.9946 26.219 21.0011 26.2264 21.0087 26.232C21.0163 26.2377 21.0247 26.2416 21.0336 26.2435C21.922 26.438 22.6005 26.6885 23.1659 27.0296C23.1755 27.0358 23.1864 27.039 23.1974 27.039C23.2099 27.0391 23.2221 27.0353 23.2328 27.0281C23.2435 27.0208 23.2523 27.0102 23.2581 26.9976C23.2627 26.9884 23.2657 26.9782 23.2668 26.9677C23.2679 26.9571 23.2672 26.9464 23.2645 26.9362C23.2619 26.9259 23.2575 26.9164 23.2516 26.9082C23.2457 26.9 23.2383 26.8933 23.2301 26.8884V26.8884ZM20.8226 27.2055L20.7923 27.1802C20.7851 27.1742 20.7769 27.17 20.7683 27.1676C20.7596 27.1653 20.7507 27.1649 20.7419 27.1665C20.7331 27.1681 20.7247 27.1717 20.7172 27.177C20.7096 27.1823 20.703 27.1893 20.6978 27.1975C20.6873 27.2143 20.6829 27.2352 20.6858 27.2557C20.6886 27.2762 20.6984 27.2945 20.713 27.3068L20.7433 27.3321C21.1642 27.6785 21.6877 28.1089 22.0339 28.6272C22.0402 28.6366 22.0483 28.6443 22.0576 28.6497C22.0669 28.655 22.0771 28.6578 22.0875 28.6578C22.1027 28.6578 22.1174 28.6522 22.1295 28.6418C22.1367 28.6356 22.1428 28.6277 22.1473 28.6187C22.1519 28.6098 22.1549 28.5999 22.1561 28.5896C22.1572 28.5793 22.1567 28.5689 22.1543 28.5588C22.1519 28.5488 22.1479 28.5394 22.1423 28.5312C21.7844 27.9956 21.2516 27.5573 20.8226 27.2055ZM13.0464 22.3076C13.0374 22.3036 13.0279 22.3018 13.0183 22.3023C13.0087 22.3027 12.9993 22.3055 12.9907 22.3104C12.9821 22.3153 12.9745 22.3221 12.9684 22.3306C12.9622 22.339 12.9577 22.3488 12.9551 22.3594C12.9525 22.3699 12.9518 22.381 12.9532 22.3918C12.9545 22.4027 12.9579 22.4131 12.9629 22.4224C12.968 22.4317 12.9747 22.4397 12.9827 22.4459C12.9906 22.452 12.9996 22.4562 13.009 22.4582C13.599 22.6447 14.4605 23.143 14.7322 23.5241C14.7387 23.5331 14.7469 23.5404 14.7562 23.5454C14.7654 23.5505 14.7755 23.5532 14.7858 23.5534C14.8014 23.5529 14.8165 23.5469 14.8289 23.5361C14.8429 23.5228 14.8518 23.5038 14.8538 23.4832C14.8557 23.4626 14.8506 23.4419 14.8394 23.4255C14.5433 23.0098 13.6561 22.5008 13.0464 22.3076V22.3076ZM14.3463 24.3648C13.8907 24.1527 13.413 24.009 12.9251 23.9371C12.9163 23.9352 12.9072 23.9354 12.8984 23.9377C12.8896 23.9401 12.8814 23.9444 12.8741 23.9505C12.8669 23.9567 12.8609 23.9644 12.8564 23.9734C12.8519 23.9823 12.8491 23.9922 12.8482 24.0024C12.8468 24.0125 12.8473 24.0227 12.8494 24.0326C12.8516 24.0425 12.8554 24.0518 12.8607 24.0599C12.866 24.0681 12.8727 24.075 12.8804 24.0802C12.888 24.0854 12.8965 24.0889 12.9053 24.0903C13.3809 24.1618 13.8467 24.3019 14.2915 24.5074C14.3004 24.5115 14.3099 24.5138 14.3195 24.5141C14.3354 24.5147 14.351 24.5088 14.3636 24.4975C14.3761 24.4862 14.3847 24.4702 14.3879 24.4524C14.3911 24.4345 14.3887 24.4159 14.3811 24.3999C14.3735 24.3839 14.3611 24.3715 14.3463 24.3648Z" fill="black"></path> <path d="M9.26912 21.4776C8.59759 22.2144 9.07326 23.4362 9.85205 23.8093C10.7451 24.2344 11.7372 23.6494 11.6754 22.4769C11.6113 21.1885 10.0269 20.6529 9.26912 21.4776ZM26.0947 28.6966C25.9233 27.8318 25.2075 27.0231 24.1769 27.4068C22.9376 27.8705 23.1661 29.568 24.1326 30.1782C25.0431 30.7471 26.3489 30.001 26.0947 28.6966Z" fill="#E79C25"></path> <path d="M17.2657 21.5681C17.1921 21.5621 17.119 21.5866 17.0599 21.6372C17.0008 21.6878 16.9597 21.7611 16.9441 21.8436C16.9285 21.9261 16.9395 22.0122 16.975 22.0862C17.0105 22.1602 17.0682 22.217 17.1375 22.2463C17.605 22.4342 17.6936 21.6107 17.2657 21.5681ZM19.5776 22.5754C19.2383 22.674 19.1789 23.2722 19.5893 23.2776C20.1419 23.2869 20.0533 22.4342 19.5776 22.5754V22.5754ZM14.8349 21.7959C14.5469 21.9905 14.6169 22.4408 14.9841 22.3289C15.5169 22.181 15.2931 21.4855 14.8349 21.7959V21.7959ZM21.2191 24.622C20.8694 24.7206 20.8297 25.2295 21.2331 25.2469C21.7554 25.2682 21.6633 24.4967 21.2191 24.622Z" fill="white"></path> <path d="M2.29246 18.8461C1.83311 19.0166 1.98117 19.6708 2.2808 19.8547C2.4207 19.9413 2.59208 19.924 2.74714 19.7095C3.08524 19.2591 2.79844 18.6595 2.29246 18.8461ZM6.64575 17.7269C6.54947 17.6877 6.44518 17.6821 6.34612 17.7109C6.25513 17.7345 6.17355 17.7919 6.11414 17.8741C6.05473 17.9564 6.02084 18.0588 6.01777 18.1654C6.01471 18.272 6.04264 18.3767 6.0972 18.4632C6.15176 18.5498 6.22987 18.6132 6.31931 18.6436H6.33796C6.82412 18.8008 7.13074 17.94 6.64575 17.7269ZM8.94131 13.4738C8.35838 13.6644 8.52627 14.5398 9.14184 14.3679C9.79938 14.1734 9.53473 13.2793 8.94131 13.4738ZM5.6711 11.1088C6.13744 10.7091 5.60348 10.0083 5.17328 10.4226C4.74308 10.837 5.20009 11.5085 5.6711 11.1088ZM9.75158 8.72516C9.2456 8.68253 9.14067 9.36738 9.57204 9.61654C9.61325 9.64163 9.65844 9.65703 9.70494 9.66184C10.1433 9.70581 10.4756 8.78246 9.75507 8.71983L9.75158 8.72516ZM12.791 4.89051C12.4039 4.78392 12.0693 5.44479 12.4482 5.68995C12.9005 5.97109 13.3914 5.0504 12.7944 4.88518L12.791 4.89051ZM17.0475 8.45868C16.5298 8.36675 16.3048 9.12488 16.8878 9.27011C17.5185 9.41934 17.6048 8.55062 17.051 8.45335L17.0475 8.45868ZM17.9965 12.8876C17.691 13.3499 18.1725 13.6777 18.4966 13.5684C18.5735 13.5446 18.6407 13.4909 18.6867 13.4165C18.9571 12.9662 18.3043 12.4172 18 12.8823L17.9965 12.8876ZM20.2314 15.8042C20.3006 15.8933 20.3979 15.9474 20.5019 15.9548C20.868 15.9801 21.2644 15.4525 20.9146 15.0541C20.5345 14.6117 19.8665 15.3405 20.2349 15.7989L20.2314 15.8042ZM23.476 13.4059C23.0306 13.6977 23.2859 14.3972 23.7779 14.2946C24.58 14.1214 24.0064 13.0541 23.4795 13.3979L23.476 13.4059ZM20.7607 10.829C20.411 11.1834 20.7257 11.7111 21.1454 11.6178L21.1781 11.6085C21.8193 11.4166 21.3355 10.2494 20.7607 10.829ZM19.0597 4.73462C18.5934 4.92249 18.6692 5.69928 19.2218 5.51008C19.8199 5.30489 19.6089 4.51477 19.0597 4.73462ZM25.311 9.74978C24.9263 10.0895 25.2131 10.8037 25.7004 10.6105C26.3358 10.356 25.8823 9.24347 25.311 9.74978ZM28.411 6.97838C28.1254 7.45672 28.5731 7.93238 29.0114 7.71387C29.8042 7.32081 28.8587 6.23357 28.411 6.97838ZM29.7296 12.7783C29.6949 12.8702 29.6871 12.9723 29.7073 13.0697C29.7274 13.167 29.7745 13.2543 29.8415 13.3186C29.9085 13.383 29.9919 13.4209 30.0793 13.4268C30.1667 13.4326 30.2534 13.4062 30.3265 13.3513C31.012 12.8409 29.9791 12.0029 29.7296 12.7783ZM35.1975 19.2671C34.6145 19.5256 34.7369 20.2131 35.3618 20.1851C36.1884 20.1478 35.9681 18.9234 35.194 19.2671H35.1975ZM31.4609 22.4649C30.9771 22.1984 30.5865 22.8433 30.773 23.3389C30.7949 23.4171 30.8353 23.4867 30.8899 23.5399C30.9445 23.5931 31.0111 23.6278 31.082 23.6401C31.6136 23.7053 31.9774 22.7434 31.4574 22.4622L31.4609 22.4649ZM34.9118 24.7913C34.456 25.1683 34.8605 25.7879 35.3455 25.6253C36.08 25.3762 35.4295 24.3596 34.9083 24.7886L34.9118 24.7913ZM31.7116 28.7378C31.2394 28.9697 31.3828 29.9197 31.9272 29.873C32.6781 29.8091 32.3306 28.43 31.7116 28.7378ZM27.687 31.6771C27.4399 32.2234 27.8433 32.8763 28.3481 32.5032C29.0173 32.0102 28.0893 30.7777 27.6835 31.6771H27.687ZM25.9441 35.1813C25.6794 35.7343 26.2519 36.3259 26.7089 35.9981C27.5005 35.4265 26.3125 34.4019 25.9406 35.1813H25.9441ZM19.9773 34.9508C19.4177 35.1334 19.4888 36.1433 20.1148 36.078C20.8796 35.9967 20.6581 34.7296 19.9738 34.9508H19.9773ZM13.0171 35.3892C13.1162 35.8542 13.8204 35.8395 13.9498 35.4118C14.2541 34.3805 12.8504 34.6244 13.0136 35.3892H13.0171ZM10.3473 31.4519C10.3608 31.5389 10.393 31.6206 10.441 31.6898C10.489 31.759 10.5513 31.8135 10.6223 31.8483C10.6932 31.8832 10.7707 31.8974 10.8476 31.8896C10.9246 31.8818 10.9987 31.8523 11.0632 31.8037C11.9271 31.0442 10.2284 30.3967 10.3438 31.4519H10.3473ZM5.88794 30.4686C5.82481 30.557 5.78535 30.6644 5.7743 30.7778C5.76324 30.8913 5.78106 31.0059 5.82562 31.108C5.87018 31.2102 5.93959 31.2954 6.0255 31.3536C6.11142 31.4118 6.2102 31.4404 6.30998 31.4359C6.37438 31.4309 6.43725 31.4112 6.49491 31.378C6.55257 31.3449 6.60385 31.2989 6.64575 31.2427C7.08061 30.6951 6.36828 29.7784 5.88794 30.4686ZM5.01356 24.654C4.57519 25.1457 5.0905 25.7706 5.59648 25.5147C6.31814 25.147 5.46474 24.1517 5.01356 24.654Z" fill="#A28A78"></path> <path d="M16.3224 24.3129C16.6815 23.3962 19.6509 24.5194 19.2277 25.7785C18.9421 26.6246 18.0316 26.8205 17.2341 26.5273C16.4367 26.2342 15.9482 25.2575 16.3224 24.3129Z" fill="black"></path> </svg> 