<?xml version="1.0" encoding="UTF-8"?> <svg xmlns="http://www.w3.org/2000/svg" width="70" height="85" viewBox="0 0 70 85" fill="none"> <path d="M69.1761 14.2271L55.2349 10.4916C48.0268 8.56014 41.2932 8.3152 35.0342 9.75674C28.9448 11.1053 23.3809 14.2033 19.0257 18.6705C14.6061 23.1658 11.46 28.9077 9.58743 35.8962C7.71487 42.8847 7.56851 49.4303 9.14836 55.5332C10.6897 61.5769 13.9593 67.0393 18.5567 71.2515C23.272 75.6296 29.2265 78.7825 36.42 80.71L50.3611 84.4455L54.7135 68.2019L40.2999 64.3398C36.6152 63.4384 33.201 61.6648 30.3445 59.1683C27.7892 56.9252 25.9569 53.9737 25.0796 50.6876C24.2776 47.2024 24.3423 43.5733 25.268 40.1184C26.1938 36.6635 27.9523 33.4883 30.3895 30.871C32.7929 28.4535 35.858 26.8024 39.1981 26.126C42.9205 25.3971 46.7628 25.5701 50.4041 26.6305L64.8207 30.4816L69.1761 14.2271Z" fill="#73BFFE"></path> </svg> 